<?xml version="1.0" standalone="no"?>
<!DOCTYPE svg PUBLIC "-//W3C//DTD SVG 20010904//EN"
 "http://www.w3.org/TR/2001/REC-SVG-20010904/DTD/svg10.dtd">
<svg version="1.0" xmlns="http://www.w3.org/2000/svg"
 width="2048.000000pt" height="2048.000000pt" viewBox="0 0 2048.000000 2048.000000"
 preserveAspectRatio="xMidYMid meet">

<g transform="translate(0.000000,2048.000000) scale(0.100000,-0.100000)"
fill="#000000" stroke="none">
<path d="M9970 18619 c-1135 -71 -2201 -360 -3204 -866 -1005 -508 -1894
-1223 -2619 -2106 -247 -301 -526 -702 -720 -1037 -112 -194 -146 -260 -141
-275 4 -9 -3 -23 -19 -35 -41 -33 -244 -457 -372 -780 -328 -828 -512 -1659
-566 -2564 -15 -254 -7 -877 15 -1116 98 -1066 354 -1986 811 -2915 170 -345
305 -580 524 -910 1068 -1612 2703 -2796 4584 -3319 515 -143 1002 -227 1622
-278 232 -19 914 -16 1165 6 1804 153 3394 822 4740 1994 162 141 540 514 677
667 1142 1281 1846 2850 2032 4530 64 572 67 1155 10 1715 -242 2391 -1518
4539 -3500 5892 -466 318 -1008 612 -1504 816 -427 175 -997 349 -1395 425
-294 57 -692 112 -1020 143 -208 19 -900 27 -1120 13z m2395 -579 c-3 -4 0
-10 7 -12 7 -3 8 -9 3 -17 -6 -10 -11 -8 -21 10 -13 25 -9 43 7 33 5 -3 7 -9
4 -14z m-351 -611 c11 -10 17 -21 14 -24 -3 -3 -36 -7 -74 -9 -125 -8 -209
-28 -291 -70 -56 -28 -89 -33 -95 -15 -5 14 -118 -39 -125 -58 -3 -7 -13 -13
-23 -13 -30 0 -170 -111 -248 -196 -82 -89 -119 -155 -128 -227 -6 -45 -9 -48
-31 -44 -22 4 -28 -2 -49 -48 -69 -150 -88 -379 -46 -538 27 -98 88 -217 147
-284 26 -29 43 -57 40 -63 -7 -11 83 -98 143 -139 115 -78 285 -139 404 -143
71 -3 79 -10 58 -48 -9 -16 -4 -20 43 -29 51 -10 50 -10 -23 -5 -41 2 -100 7
-130 10 l-55 5 -240 -413 c-131 -227 -265 -456 -295 -508 -31 -52 -193 -329
-360 -615 -167 -286 -481 -821 -696 -1190 -216 -368 -391 -671 -389 -673 2 -2
133 70 291 159 159 89 354 198 434 242 80 44 210 116 290 162 80 45 312 175
517 289 l372 207 6 57 c17 142 67 245 173 349 65 65 72 77 70 108 -3 47 5 51
48 26 l36 -22 67 27 c36 14 88 36 115 47 l48 22 -7 235 c-4 129 -9 278 -10
330 -1 52 -8 230 -14 395 -6 165 -11 336 -11 380 0 44 -3 148 -7 230 l-8 150
-60 -2 -60 -2 54 15 c53 14 90 33 44 21 -13 -3 -23 -1 -23 5 0 5 -7 2 -16 -6
-20 -20 -30 -21 -14 -1 10 13 10 19 -4 33 -9 10 -16 26 -16 35 0 9 -4 17 -8
17 -5 0 -6 14 -4 31 3 20 0 34 -9 40 -12 8 -12 10 0 18 25 16 -30 111 -97 167
-104 89 -141 134 -265 326 -59 90 -78 144 -87 248 -4 52 -5 99 -2 104 3 5 0 6
-6 2 -19 -11 -14 15 5 29 14 11 15 17 5 39 -13 29 -7 56 14 56 11 0 46 53 54
82 3 13 86 103 188 205 57 56 101 107 98 112 -4 5 -2 12 4 16 5 3 10 -1 10 -9
0 -10 6 -13 15 -10 8 4 13 9 10 14 -2 4 7 12 21 18 13 7 29 23 34 37 9 24 30
35 30 15 0 -6 9 -6 23 -1 12 5 21 16 19 25 -2 9 3 16 10 16 7 0 19 9 26 20 7
11 18 20 25 20 8 0 7 -4 -3 -10 -13 -8 -12 -10 4 -10 38 0 97 79 151 204 l25
59 38 -5 c93 -13 302 -118 408 -206 134 -110 240 -277 285 -447 26 -101 36
-295 20 -391 -27 -156 -87 -306 -176 -438 l-46 -68 24 -27 c13 -14 215 -258
447 -541 232 -283 431 -524 441 -535 17 -18 548 -663 609 -739 29 -37 710
-867 721 -880 5 -6 47 9 101 35 l93 44 200 0 c225 0 274 -9 403 -72 115 -56
210 -164 253 -285 7 -20 15 -35 18 -33 12 6 12 -215 1 -272 -21 -106 -40 -153
-64 -159 -19 -4 -22 -11 -18 -36 l5 -32 18 22 c9 12 20 22 24 22 7 0 91 -54
509 -324 l289 -187 56 44 c87 68 80 66 269 60 l172 -5 -2 23 c-3 23 0 24 52
24 110 -1 249 -93 308 -203 76 -143 81 -316 14 -490 -50 -130 -232 -303 -379
-361 -28 -11 -88 -28 -134 -37 -458 -93 -733 348 -479 769 22 36 40 70 40 74
0 4 -42 35 -93 69 -183 120 -353 237 -394 270 -23 19 -45 34 -50 34 -4 0 -32
18 -61 40 -29 22 -55 40 -57 40 -3 0 -27 16 -54 35 -26 19 -51 35 -54 35 -3 0
-33 -37 -66 -83 -139 -192 -348 -339 -569 -399 -104 -28 -339 -36 -431 -15
l-64 15 -51 -47 c-28 -26 -72 -65 -97 -86 -25 -22 -225 -202 -445 -400 -220
-198 -435 -391 -479 -430 -120 -106 -319 -286 -425 -384 -52 -49 -135 -123
-185 -167 -49 -43 -144 -128 -211 -189 -66 -60 -172 -157 -236 -215 l-116
-105 27 -35 c85 -109 132 -212 160 -345 l16 -80 660 -248 c363 -136 714 -267
780 -291 66 -24 361 -134 655 -244 505 -190 535 -200 553 -184 10 9 26 29 35
44 9 16 22 26 30 23 7 -2 17 6 22 20 10 27 104 105 127 105 8 0 33 11 56 24
23 14 84 34 135 46 50 12 92 26 92 31 0 5 7 9 15 9 8 0 23 9 32 20 10 11 22
20 27 20 5 0 19 11 32 25 13 14 27 25 33 25 5 0 22 13 38 28 15 16 36 31 46
35 9 3 17 11 17 16 0 5 11 12 25 15 14 4 25 11 25 16 0 6 7 10 15 10 9 0 18 6
21 14 3 8 19 18 35 21 16 4 29 11 29 16 0 5 11 11 25 15 14 3 25 10 25 14 0 5
14 11 30 15 17 4 30 10 30 15 0 5 14 11 30 15 17 4 30 10 30 15 0 4 19 11 43
15 23 4 45 12 48 17 3 5 31 12 62 15 31 3 54 10 51 14 -3 5 18 9 45 9 l51 0 0
-55 c0 -30 -4 -55 -9 -55 -5 0 -12 -12 -15 -26 -4 -14 -18 -36 -31 -48 -14
-13 -25 -27 -25 -31 0 -10 -157 -165 -167 -165 -10 0 -43 -37 -43 -48 0 -10
-38 -42 -50 -42 -28 0 -12 -21 45 -59 110 -72 169 -133 215 -223 24 -46 78
-149 121 -229 44 -80 79 -155 79 -168 0 -12 4 -19 10 -16 17 10 11 137 -10
219 -48 190 -173 350 -334 428 -35 17 -46 28 -46 45 0 33 23 29 104 -19 152
-89 263 -243 302 -415 22 -99 15 -350 -12 -390 -8 -14 -18 -37 -20 -51 -3 -15
-20 -59 -39 -99 -135 -288 -432 -514 -760 -579 -130 -26 -315 -24 -423 5 -160
42 -304 135 -380 246 -40 60 -92 164 -92 188 0 7 -4 18 -9 26 -7 11 -32 -8
-110 -86 -56 -56 -101 -104 -101 -108 0 -4 -20 -27 -45 -52 -25 -24 -45 -50
-45 -56 -1 -7 -14 -23 -30 -37 -17 -13 -30 -28 -30 -33 0 -6 -11 -20 -24 -32
-13 -12 -27 -31 -30 -43 -4 -11 -13 -23 -21 -26 -8 -3 -15 -11 -15 -17 0 -6
-11 -22 -24 -34 -13 -12 -27 -31 -30 -43 -4 -11 -13 -23 -21 -26 -8 -3 -15
-12 -15 -21 0 -8 -4 -15 -10 -15 -5 0 -12 -11 -16 -24 -3 -14 -12 -27 -20 -30
-8 -3 -14 -12 -14 -21 0 -8 -4 -15 -10 -15 -5 0 -12 -11 -16 -24 -3 -14 -12
-27 -20 -30 -8 -3 -14 -12 -14 -21 0 -8 -4 -15 -9 -15 -5 0 -12 -11 -15 -25
-4 -14 -11 -25 -16 -25 -6 0 -10 -7 -10 -15 0 -9 -6 -18 -14 -21 -8 -3 -18
-19 -21 -35 -4 -16 -11 -29 -16 -29 -5 0 -11 -11 -15 -25 -3 -14 -10 -25 -14
-25 -5 0 -11 -13 -15 -29 -3 -16 -13 -32 -21 -35 -8 -3 -14 -12 -14 -21 0 -8
-4 -15 -9 -15 -5 0 -12 -14 -16 -30 -4 -17 -10 -30 -15 -30 -5 0 -11 -13 -15
-30 -4 -16 -10 -30 -15 -30 -4 0 -11 -11 -14 -25 -4 -14 -11 -25 -16 -25 -5 0
-12 -16 -16 -35 -3 -19 -10 -33 -14 -30 -4 3 -11 -11 -14 -30 -4 -19 -11 -35
-16 -35 -4 0 -11 -13 -15 -30 -4 -16 -10 -30 -15 -30 -5 0 -11 -13 -15 -30 -4
-16 -10 -30 -15 -30 -5 0 -11 -14 -15 -30 -4 -17 -10 -30 -15 -30 -4 0 -11
-12 -15 -27 -3 -15 -10 -30 -15 -33 -5 -3 -12 -21 -15 -40 -3 -19 -13 -38 -21
-43 -8 -4 -14 -15 -14 -22 0 -8 -4 -15 -9 -15 -5 0 -12 -14 -16 -30 -4 -17
-10 -30 -15 -30 -4 0 -11 -11 -14 -25 -4 -14 -11 -25 -16 -25 -6 0 -10 -7 -10
-15 0 -9 -7 -18 -15 -21 -8 -4 -15 -12 -15 -19 0 -7 -25 -38 -56 -70 -40 -40
-66 -58 -90 -62 -19 -3 -34 -10 -34 -14 0 -5 -49 -9 -110 -9 -60 0 -110 4
-110 9 0 5 -20 12 -45 15 -25 4 -45 11 -45 17 0 5 -6 9 -14 9 -26 0 -97 80
-103 116 -4 22 -9 31 -14 23 -4 -7 -10 12 -14 44 -4 32 -11 57 -15 57 -5 0
-12 29 -15 65 -4 36 -11 65 -15 65 -5 0 -12 45 -15 100 -4 55 -11 100 -15 100
-5 0 -11 47 -15 105 -4 58 -11 105 -15 105 -4 0 -11 50 -15 110 -3 61 -10 110
-15 110 -4 0 -11 54 -15 120 -4 66 -11 120 -15 120 -5 0 -11 54 -15 120 -4 66
-11 120 -15 120 -4 0 -11 53 -15 118 -4 64 -11 120 -16 123 -11 6 -25 434 -16
472 4 14 17 29 30 33 12 4 25 12 29 18 10 15 236 15 246 0 4 -6 21 -14 39 -17
18 -4 43 -17 55 -29 21 -21 23 -33 26 -150 2 -71 7 -128 11 -128 5 0 11 -66
15 -147 4 -81 11 -150 16 -153 4 -3 11 -58 15 -122 4 -65 11 -118 15 -118 4 0
11 -54 15 -120 4 -66 11 -120 15 -120 4 0 11 -52 15 -115 4 -63 11 -115 15
-115 5 0 12 -49 15 -110 4 -60 11 -110 15 -110 5 0 12 -45 15 -100 8 -101 18
-125 30 -70 4 16 10 30 15 30 5 0 11 13 15 30 4 16 10 30 15 30 5 0 11 13 15
30 4 16 10 30 15 30 5 0 11 13 15 30 4 16 10 30 15 30 5 0 11 13 15 30 4 16
10 30 15 30 5 0 11 13 15 30 4 16 10 30 15 30 5 0 11 13 15 30 4 16 10 30 15
30 5 0 11 13 15 30 4 16 11 30 16 30 5 0 11 11 15 25 3 14 10 25 14 25 5 0 11
13 15 30 4 16 11 30 16 30 5 0 9 7 9 15 0 9 6 18 14 21 8 3 18 19 21 35 4 16
11 29 16 29 5 0 11 11 15 25 3 14 10 25 15 25 5 0 9 7 9 15 0 9 6 18 14 21 8
3 17 16 20 30 4 13 11 24 16 24 6 0 10 7 10 15 0 9 6 18 14 21 8 3 17 16 20
30 4 13 11 24 16 24 6 0 10 7 10 15 0 9 6 18 14 21 8 3 17 16 20 30 4 13 11
24 16 24 6 0 10 6 10 13 0 7 9 20 20 30 11 9 20 23 20 31 0 8 7 16 15 20 8 3
15 11 15 17 0 6 11 22 25 35 14 13 25 27 25 33 0 5 14 23 30 39 17 17 30 34
30 39 0 5 13 20 30 33 16 14 29 30 30 37 0 7 16 27 35 46 19 19 35 37 35 41 0
9 486 496 495 496 4 0 34 27 67 60 33 33 64 60 68 60 21 0 78 71 129 158 29
51 51 95 49 97 -2 2 -249 94 -548 205 -676 249 -651 239 -676 262 -12 11 -46
23 -75 28 -59 8 -360 117 -370 133 -4 5 -11 7 -15 4 -5 -3 -45 9 -89 27 -61
25 -80 37 -80 51 0 11 -8 21 -18 23 -10 2 -17 -3 -17 -13 0 -18 -20 -15 -70
10 -14 7 -88 34 -165 60 -144 49 -195 71 -206 87 -4 6 -27 13 -53 15 -35 4
-46 10 -46 23 0 10 -6 23 -13 29 -21 17 -74 25 -81 12 -4 -6 -17 -11 -30 -11
-19 0 -23 -8 -34 -68 -25 -149 -104 -290 -240 -430 -86 -89 -138 -118 -313
-176 -178 -60 -410 -74 -562 -35 -44 11 -92 26 -106 33 -14 7 -32 11 -40 8 -8
-3 -11 0 -7 6 3 6 -12 23 -35 39 -136 93 -243 269 -319 528 -12 39 -24 77 -27
85 -8 20 -9 29 -24 150 -9 79 -10 119 -2 160 11 53 11 56 -15 78 l-27 23 28
-6 c23 -5 29 -1 37 22 6 16 15 35 20 43 6 8 20 35 31 59 12 24 55 80 97 124
83 87 81 89 -15 14 -35 -27 -63 -55 -63 -63 0 -8 -13 -23 -30 -32 -16 -9 -51
-49 -77 -89 -25 -40 -50 -70 -55 -67 -4 3 -13 -6 -20 -21 -10 -21 -9 -27 7
-39 21 -15 14 -46 -9 -46 -9 0 -18 -14 -22 -36 -8 -44 2 -138 16 -142 13 -5
13 -52 0 -52 -16 0 -12 -67 5 -84 8 -8 15 -21 15 -29 0 -8 9 -17 20 -20 12 -3
18 -1 14 5 -4 6 4 8 17 6 18 -2 24 -10 25 -28 2 -30 -14 -53 -33 -46 -24 9
-13 -36 26 -113 31 -60 39 -70 43 -53 8 29 34 28 54 -3 17 -26 12 -45 -13 -45
-14 0 -13 -3 3 -21 10 -11 31 -28 46 -37 45 -26 33 -62 -22 -62 -61 0 -194
182 -255 350 -24 66 -28 92 -31 215 -3 133 -2 144 26 228 17 48 39 105 50 127
11 21 17 45 14 53 -3 9 3 16 15 20 10 2 31 23 45 46 15 22 31 41 36 41 5 0 17
11 26 25 16 25 16 25 -77 113 -52 48 -249 234 -439 413 -190 178 -489 459
-664 624 -175 165 -322 301 -327 303 -5 2 -24 -12 -43 -31 -102 -103 -290
-177 -443 -177 -69 0 -173 24 -229 53 -62 31 -149 118 -180 179 l-24 47 -72
-33 c-40 -19 -194 -93 -343 -166 -148 -73 -405 -198 -570 -277 -165 -80 -376
-183 -470 -228 -515 -250 -854 -414 -965 -467 -69 -33 -127 -62 -129 -64 -2
-2 6 -27 17 -56 35 -88 44 -139 43 -232 -1 -141 -46 -261 -135 -366 -25 -30
-46 -57 -46 -60 0 -3 -35 -29 -78 -58 -147 -98 -346 -149 -539 -138 -57 3
-103 5 -103 3 0 -1 -9 -54 -20 -117 -25 -144 -25 -150 0 -150 11 0 20 4 20 9
0 5 25 12 55 16 30 3 55 10 55 15 0 5 36 12 80 16 44 3 80 11 80 15 0 12 417
12 424 0 3 -4 37 -11 76 -15 38 -4 70 -11 70 -15 0 -5 25 -12 55 -16 30 -3 55
-10 55 -15 0 -5 20 -12 45 -16 25 -3 45 -10 45 -14 0 -5 13 -11 30 -15 16 -4
30 -10 30 -15 0 -5 13 -11 30 -15 16 -4 30 -11 30 -16 0 -5 7 -9 15 -9 9 0 18
-6 21 -14 3 -8 16 -17 30 -20 13 -4 24 -11 24 -16 0 -6 5 -10 11 -10 15 0 79
-65 79 -80 0 -6 7 -13 15 -16 16 -7 21 -34 6 -34 -5 0 -12 -11 -15 -24 -4 -15
-16 -26 -33 -31 -15 -3 -31 -12 -35 -18 -11 -17 -280 -17 -286 1 -2 6 -8 12
-14 12 -6 0 -37 27 -69 59 -31 33 -67 62 -78 66 -12 3 -21 10 -21 15 0 5 -15
12 -32 15 -18 4 -36 12 -39 17 -3 5 -23 11 -45 15 -21 3 -42 11 -46 17 -9 14
-336 15 -346 1 -4 -5 -40 -21 -79 -35 -40 -13 -73 -28 -73 -32 0 -4 -7 -8 -15
-8 -9 0 -18 -7 -21 -15 -4 -8 -12 -15 -19 -15 -8 0 -27 -14 -43 -30 -17 -16
-34 -30 -37 -30 -12 0 -85 -77 -85 -89 0 -6 -4 -11 -8 -11 -18 0 -44 -68 -56
-150 -8 -47 -10 -87 -6 -90 4 -3 11 -16 15 -29 7 -24 125 -151 140 -151 3 0
27 -20 52 -45 24 -25 50 -45 56 -45 7 -1 23 -14 37 -30 13 -17 28 -30 33 -30
6 0 20 -11 33 -25 13 -14 27 -25 33 -25 5 0 23 -13 39 -30 17 -17 34 -30 38
-30 4 0 22 -16 41 -35 19 -19 39 -35 46 -35 7 -1 23 -14 37 -30 13 -17 28 -30
33 -30 5 0 29 -20 54 -45 24 -25 49 -45 54 -45 5 0 26 -18 48 -40 21 -22 42
-40 46 -40 4 0 36 -29 72 -65 35 -36 68 -65 73 -65 5 0 49 -40 98 -90 49 -49
93 -90 98 -90 5 0 47 -41 94 -91 47 -50 122 -129 168 -176 45 -47 82 -89 82
-94 0 -5 20 -29 45 -52 25 -24 45 -47 45 -51 0 -5 18 -25 39 -46 21 -21 42
-47 45 -58 4 -11 13 -23 21 -26 8 -3 15 -11 15 -17 0 -6 11 -22 24 -34 13 -12
27 -31 30 -43 4 -11 13 -23 21 -26 8 -3 15 -12 15 -21 0 -8 4 -15 10 -15 5 0
12 -11 16 -24 3 -14 12 -27 20 -30 8 -3 14 -12 14 -21 0 -8 4 -15 10 -15 5 0
12 -11 16 -24 3 -14 12 -27 20 -30 8 -3 14 -12 14 -21 0 -8 4 -15 9 -15 5 0
12 -11 15 -25 4 -14 10 -25 15 -25 5 0 12 -13 16 -29 3 -16 13 -32 21 -35 8
-3 14 -12 14 -21 0 -8 4 -15 9 -15 5 0 12 -14 16 -30 4 -17 10 -30 15 -30 5 0
11 -13 15 -30 4 -16 10 -30 15 -30 5 0 11 -14 15 -30 4 -17 10 -30 15 -30 5 0
11 -13 15 -30 4 -16 11 -30 16 -30 5 0 12 -18 15 -40 4 -22 10 -40 15 -40 4 0
11 -16 15 -35 3 -19 10 -35 14 -35 5 0 12 -25 15 -55 4 -30 11 -55 15 -55 4 0
11 -28 15 -62 4 -35 12 -66 18 -70 15 -9 15 -377 0 -386 -6 -4 -14 -31 -18
-59 -4 -29 -10 -53 -15 -53 -4 0 -11 -16 -14 -35 -4 -19 -11 -35 -16 -35 -4 0
-11 -14 -15 -30 -4 -17 -10 -30 -15 -30 -4 0 -11 -11 -14 -25 -4 -14 -11 -25
-16 -25 -6 0 -10 -7 -10 -15 0 -9 -7 -18 -15 -21 -8 -3 -17 -15 -20 -25 -7
-22 -142 -159 -157 -159 -5 0 -19 -10 -31 -23 -12 -13 -30 -26 -39 -30 -10 -3
-18 -11 -18 -16 0 -5 -12 -12 -26 -15 -15 -4 -33 -14 -41 -21 -8 -8 -23 -15
-34 -15 -10 0 -19 -4 -19 -10 0 -5 -18 -13 -40 -16 -22 -4 -40 -10 -40 -14 0
-5 -19 -11 -42 -15 -24 -4 -45 -11 -48 -16 -3 -5 -38 -11 -78 -15 -40 -4 -72
-11 -72 -15 0 -5 -97 -9 -215 -9 -118 0 -215 4 -215 9 0 5 -38 12 -85 16 -47
4 -85 10 -85 15 0 4 -23 10 -50 14 -28 4 -50 10 -50 15 0 5 -19 11 -41 14 -23
3 -45 10 -48 15 -3 5 -23 12 -43 16 -21 4 -38 11 -38 16 0 4 -14 11 -30 15
-17 4 -30 10 -30 15 0 5 -14 11 -30 15 -17 4 -30 10 -30 15 0 5 -13 11 -29 15
-16 3 -32 13 -35 21 -3 8 -12 14 -21 14 -8 0 -15 4 -15 9 0 5 -10 13 -22 17
-12 4 -33 20 -47 35 -14 16 -29 29 -34 29 -10 0 -137 125 -137 135 0 4 -11 18
-24 30 -13 12 -27 32 -31 43 -3 12 -11 22 -16 22 -5 0 -9 7 -9 15 0 9 -6 18
-14 21 -8 3 -18 19 -21 35 -4 16 -10 29 -15 29 -4 0 -11 20 -14 45 -4 25 -11
45 -16 45 -5 0 -12 32 -16 70 -3 39 -11 70 -15 70 -5 0 -9 68 -9 150 0 83 4
150 9 150 5 0 12 29 16 65 3 36 10 65 15 65 4 0 10 18 14 40 3 22 10 40 15 40
5 0 12 16 15 35 4 19 11 35 16 35 4 0 11 13 15 30 4 16 11 30 16 30 5 0 11 11
15 24 3 14 12 27 20 30 8 3 14 11 14 17 0 6 18 29 40 50 22 22 40 43 40 48 0
12 47 61 59 61 6 0 25 16 44 35 19 19 39 35 46 35 6 0 11 4 11 10 0 5 11 12
24 16 14 3 27 12 30 20 3 8 12 14 21 14 8 0 15 4 15 10 0 5 11 12 25 16 14 3
25 10 25 14 0 5 13 11 30 15 16 4 30 10 30 15 0 5 14 11 30 15 17 4 30 10 30
15 0 5 13 11 30 15 16 4 30 11 30 15 0 5 16 12 35 16 19 3 35 10 35 15 0 5 18
12 40 15 22 4 40 10 40 15 0 4 16 11 35 15 19 3 35 10 35 14 0 4 20 11 45 14
25 4 45 11 45 16 0 5 27 12 60 16 33 4 63 11 66 15 8 14 192 11 196 -3 3 -7
12 -9 23 -4 17 6 16 9 -13 36 -18 16 -32 33 -32 39 0 6 -16 25 -35 44 -19 19
-35 37 -35 42 0 4 -25 32 -55 61 -30 30 -55 58 -55 63 0 12 -409 421 -420 421
-5 0 -38 29 -73 65 -36 36 -68 65 -72 65 -4 0 -32 25 -61 55 -30 30 -59 55
-64 55 -5 0 -24 16 -43 35 -19 19 -37 35 -42 35 -4 0 -25 18 -46 40 -22 22
-43 40 -49 40 -5 0 -24 16 -43 35 -19 19 -37 35 -41 35 -4 0 -21 13 -38 30
-16 16 -34 30 -39 30 -6 0 -20 10 -32 23 -12 13 -30 26 -39 30 -10 3 -18 11
-18 17 0 5 -6 10 -14 10 -10 0 -22 -54 -45 -202 -18 -112 -33 -210 -34 -218
-1 -11 14 -16 58 -22 292 -38 494 -290 455 -570 -39 -282 -328 -499 -632 -474
-96 8 -104 12 -113 46 l-6 25 138 0 c117 0 149 4 213 23 68 22 73 25 56 38
-14 10 -23 11 -32 3 -17 -14 -34 -3 -34 20 0 26 -78 57 -180 71 -76 10 -116
22 -130 39 -3 3 -24 18 -47 33 -101 66 -158 207 -155 382 2 103 12 146 54 237
29 66 31 67 96 92 37 15 82 29 99 32 18 4 33 9 33 12 0 3 9 59 20 125 11 65
18 123 15 128 -3 5 -1 17 4 27 10 18 41 193 41 231 0 20 -83 112 -101 112 -12
0 -49 37 -49 50 0 5 -16 24 -35 43 -19 19 -35 39 -35 46 0 6 -4 11 -10 11 -5
0 -10 6 -10 14 0 8 -8 22 -17 32 -13 13 -17 35 -17 102 0 58 4 87 12 90 7 2
12 15 12 28 0 14 6 27 14 30 8 3 17 16 20 30 4 13 11 24 16 24 6 0 10 5 10 11
0 7 16 27 35 46 19 19 35 38 35 43 0 13 37 50 49 50 5 0 22 13 38 28 15 16 36
31 46 35 9 3 17 11 17 16 0 5 11 12 25 15 14 4 25 11 25 16 0 6 7 10 15 10 9
0 18 7 21 15 4 8 12 15 19 15 15 0 17 7 45 180 11 69 22 140 25 158 6 32 5 33
-67 66 -236 109 -383 309 -404 549 -16 190 86 399 251 512 30 21 54 44 52 49
-8 23 -80 263 -163 546 -167 569 -231 785 -379 1288 l-120 404 -35 -6 c-124
-19 -254 -19 -286 2 -6 4 -14 16 -18 27 -6 19 -2 20 108 17 106 -4 220 10 230
27 3 4 1 32 -3 63 -5 41 -23 81 -68 159 -34 57 -64 120 -68 139 -4 19 -11 41
-15 50 -5 8 -17 65 -29 125 -22 121 -30 133 -117 175 -43 21 -94 85 -94 117 0
24 90 101 149 128 112 52 150 60 291 60 115 0 145 -3 202 -23 176 -61 284
-202 295 -387 10 -144 -35 -265 -159 -430 -76 -102 -98 -119 -235 -185 l-31
-15 48 -160 c39 -130 260 -876 567 -1915 25 -85 47 -156 48 -158 4 -4 136 34
178 53 30 12 63 15 145 13 l106 -3 162 585 c90 322 190 682 223 800 162 581
691 2491 691 2495 0 3 29 5 65 5 36 0 65 -2 65 -5 0 -2 -101 -368 -224 -812
-368 -1325 -597 -2150 -732 -2643 -70 -256 -128 -466 -129 -467 -1 -1 -18 2
-39 8 -21 6 -40 9 -42 6 -2 -2 35 -35 83 -73 201 -158 322 -299 387 -448 27
-62 31 -82 30 -156 -1 -47 -9 -123 -18 -169 -21 -109 -21 -123 3 -92 69 90 87
291 38 429 -14 41 -41 99 -59 129 -71 119 -208 242 -332 299 -31 14 -56 28
-56 30 0 3 7 12 15 20 13 13 24 11 92 -16 98 -39 172 -88 246 -162 l59 -58
821 397 c452 219 1031 499 1287 623 l465 226 7 72 c4 39 19 104 33 144 15 40
28 84 29 98 2 14 4 29 5 34 0 4 7 6 15 3 8 -3 17 1 20 9 7 18 50 18 65 0 10
-12 7 -18 -14 -32 -27 -18 -52 -57 -66 -107 l-8 -30 27 24 c15 13 79 74 142
135 64 60 140 124 170 141 91 51 224 66 334 38 27 -7 59 -10 70 -6 21 8 20 9
-42 47 -2 1 446 770 994 1710 548 940 997 1715 998 1722 1 7 -26 24 -59 39
-141 63 -270 165 -350 278 -240 338 -230 787 25 1140 32 44 81 102 109 130 28
27 51 55 51 62 0 7 6 13 13 13 7 0 44 23 82 51 178 131 485 236 650 222 39 -4
67 -12 79 -24z m-24 -184 c0 -8 -7 -15 -15 -15 -16 0 -20 12 -8 23 11 12 23 8
23 -8z m-49 -48 c-10 -9 -11 -8 -5 6 3 10 9 15 12 12 3 -3 0 -11 -7 -18z
m-527 -16 c24 -26 18 -67 -9 -63 -29 6 -45 22 -45 47 0 39 26 47 54 16z m316
-11 c0 -5 -4 -10 -10 -10 -5 0 -10 5 -10 10 0 6 5 10 10 10 6 0 10 -4 10 -10z
m24 -105 c3 -9 0 -15 -8 -15 -7 0 -13 7 -13 15 0 8 4 15 8 15 4 0 9 -7 13 -15z
m-429 -63 c0 -18 -20 -15 -23 4 -3 10 1 15 10 12 7 -3 13 -10 13 -16z m-140
-2 c3 -5 1 -10 -4 -10 -6 0 -11 5 -11 10 0 6 2 10 4 10 3 0 8 -4 11 -10z m266
-93 c-1 -12 -15 -9 -19 4 -3 6 1 10 8 8 6 -3 11 -8 11 -12z m87 -42 c2 -26
-12 -42 -23 -25 -5 8 10 50 18 50 2 0 4 -11 5 -25z m-368 -25 c-10 -7 -11 -10
-2 -10 8 0 6 -6 -5 -19 -15 -15 -21 -16 -38 -6 -31 19 -24 39 15 45 40 7 51 3
30 -10z m68 -85 c3 -11 0 -15 -7 -10 -6 3 -9 10 -6 15 3 4 0 11 -5 13 -6 3 -5
4 2 3 7 -1 15 -11 16 -21z m75 10 c4 -8 3 -16 -1 -19 -13 -8 -35 11 -28 23 10
15 23 14 29 -4z m127 -25 c0 -5 -5 -10 -11 -10 -5 0 -7 5 -4 10 3 6 8 10 11
10 2 0 4 -4 4 -10z m20 -20 c0 -5 -5 -10 -11 -10 -5 0 -7 5 -4 10 3 6 8 10 11
10 2 0 4 -4 4 -10z m-76 -56 c3 -9 3 -20 0 -26 -4 -6 -1 -14 6 -18 7 -4 9 -16
5 -29 -3 -12 -11 -19 -16 -15 -6 4 -6 11 2 20 8 10 8 14 0 14 -6 0 -11 5 -11
11 0 6 -7 17 -15 25 -8 9 -15 20 -15 25 0 16 38 10 44 -7z m-164 -139 c0 -8
-8 -19 -19 -24 -16 -9 -17 -7 -13 14 5 27 32 35 32 10z m85 -85 c3 -5 -1 -10
-10 -10 -9 0 -13 5 -10 10 3 6 8 10 10 10 2 0 7 -4 10 -10z m61 -147 c-12 -12
-29 15 -21 34 7 17 8 16 18 -5 5 -12 7 -25 3 -29z m-198 -25 c2 -9 -4 -22 -12
-31 -8 -8 -12 -18 -8 -21 3 -4 -2 -4 -11 0 -10 3 -15 9 -13 12 3 3 1 11 -6 19
-8 11 -7 17 8 28 22 17 38 14 42 -7z m89 -58 c14 -28 2 -50 -27 -50 -23 0 -43
53 -27 69 17 17 40 9 54 -19z m3293 -49 c0 -24 -11 -32 -28 -22 -16 10 -5 41
14 41 8 0 14 -9 14 -19z m-3255 -1 c3 -5 1 -10 -4 -10 -6 0 -11 5 -11 10 0 6
2 10 4 10 3 0 8 -4 11 -10z m122 -1 c12 -12 6 -49 -8 -49 -5 0 -9 3 -9 8 0 4
-3 17 -6 30 -7 23 5 29 23 11z m-377 -30 c0 -5 -10 -9 -21 -9 -18 0 -19 2 -9
15 12 15 30 12 30 -6z m445 -39 c0 -8 -10 -16 -22 -18 -18 -3 -23 2 -23 18 0
16 5 21 23 18 12 -2 22 -10 22 -18z m-6875 -64 c0 -2 -7 -7 -16 -10 -8 -3 -12
-2 -9 4 6 10 25 14 25 6z m2450 -26 c276 -71 474 -260 546 -520 25 -89 25
-289 0 -380 -24 -90 -84 -213 -139 -286 l-45 -62 100 -163 c117 -190 237 -383
366 -590 50 -81 167 -270 260 -420 191 -311 582 -943 772 -1249 70 -113 130
-215 134 -226 6 -19 1 -23 -38 -33 -25 -6 -47 -11 -50 -11 -3 0 -22 26 -42 58
-20 31 -44 66 -54 77 -11 11 -19 25 -20 30 -2 17 -60 114 -73 122 -7 5 -20 25
-30 46 -9 21 -141 239 -293 485 -152 246 -461 746 -687 1112 -225 366 -414
669 -418 674 -5 5 -32 -9 -63 -32 -134 -101 -311 -170 -454 -177 -48 -2 -77
-2 -65 1 20 5 21 8 12 26 -14 26 -6 64 27 139 20 45 24 62 15 72 -6 8 -8 17
-4 20 3 4 1 7 -6 7 -7 0 -10 4 -7 9 9 14 -36 48 -93 71 -133 52 -227 138 -255
233 -23 78 -16 194 19 335 27 105 28 119 17 180 -6 37 -29 109 -52 160 -44
101 -51 148 -32 204 14 39 33 50 145 82 96 28 166 35 297 32 86 -3 151 -11
210 -26z m7351 -3 c-10 -9 -11 -8 -5 6 3 10 9 15 12 12 3 -3 0 -11 -7 -18z
m-3299 -69 c-15 -15 -26 -4 -18 18 5 13 9 15 18 6 9 -9 9 -15 0 -24z m-4757
-258 c3 -5 1 -10 -4 -10 -6 0 -11 5 -11 10 0 6 2 10 4 10 3 0 8 -4 11 -10z
m7848 -81 c-3 -10 -12 -19 -19 -19 -15 0 -17 10 -8 34 8 21 33 9 27 -15z
m-7848 -110 c12 -19 -4 -59 -24 -59 -20 0 -33 32 -24 56 6 16 39 19 48 3z
m-375 -24 c0 -17 -17 -28 -30 -20 -7 4 -7 13 0 26 12 21 30 17 30 -6z m213
-140 c1 -5 -6 -11 -15 -13 -11 -2 -18 3 -18 13 0 17 30 18 33 0z m117 -47 c6
-24 13 -50 15 -58 3 -8 1 -21 -4 -29 -7 -11 -13 -10 -31 7 -13 12 -19 25 -15
33 5 7 4 10 -3 5 -11 -6 -32 22 -32 43 0 8 42 38 57 41 1 0 7 -19 13 -42z
m-160 -28 c0 -4 -9 -15 -20 -25 -11 -10 -20 -25 -21 -34 0 -10 -2 -12 -6 -3
-2 6 -11 12 -18 12 -8 0 -11 7 -8 21 3 12 0 24 -6 28 -8 5 -1 13 21 24 31 15
34 15 46 0 6 -9 12 -20 12 -23z m225 1 c6 -11 -33 -36 -42 -27 -7 7 16 36 28
36 4 0 10 -4 14 -9z m-407 -169 c-2 -72 60 -196 154 -307 79 -94 116 -127 158
-140 39 -12 50 -25 50 -57 0 -27 -2 -30 -26 -24 -81 21 -230 153 -294 263 -50
84 -90 193 -90 244 0 24 29 69 44 69 3 0 4 -21 4 -48z m262 17 c9 -16 8 -26
-5 -45 -8 -13 -20 -24 -25 -24 -14 0 -42 60 -36 76 8 22 54 17 66 -7z m50 -9
c0 -5 -7 -10 -15 -10 -8 0 -15 5 -15 10 0 6 7 10 15 10 8 0 15 -4 15 -10z
m7520 -62 c-1 -22 -58 -90 -65 -78 -4 6 -13 9 -20 6 -8 -3 -6 8 6 34 10 21 24
40 31 43 24 10 48 7 48 -5z m-5250 -73 c7 -8 9 -15 6 -15 -4 0 -14 7 -22 15
-9 8 -11 15 -6 15 5 0 15 -7 22 -15z m-1920 -140 c0 -8 -4 -15 -9 -15 -5 0
-11 -13 -14 -29 -7 -35 -39 -55 -74 -46 l-25 6 38 42 c48 54 84 72 84 42z m20
-105 c0 -5 -4 -10 -9 -10 -6 0 -13 5 -16 10 -3 6 1 10 9 10 9 0 16 -4 16 -10z
m7645 -101 c0 -7 -8 -15 -17 -17 -18 -3 -25 18 -11 32 10 10 28 1 28 -15z
m-7621 -47 c6 -9 -2 -22 -26 -40 -15 -12 -17 -11 -14 15 2 15 4 29 5 31 3 6
30 1 35 -6z m-60 -51 c10 -16 -5 -41 -24 -41 -23 0 -34 16 -26 35 6 16 42 20
50 6z m-465 -300 c18 -11 7 -27 -30 -46 -27 -14 -30 -14 -36 1 -4 11 2 24 16
36 26 20 30 21 50 9z m1319 -33 c-32 -41 -48 -46 -48 -16 0 31 18 48 48 48
l25 0 -25 -32z m-168 -58 c-13 -23 -47 -43 -54 -32 -9 14 24 52 45 52 17 0 18
-3 9 -20z m4044 -136 c50 -28 61 -54 22 -54 -21 0 -76 51 -76 72 0 12 3 11 54
-18z m343 -211 c4 -11 -26 -27 -35 -19 -2 3 -2 12 2 21 6 18 27 16 33 -2z
m-947 -223 c0 -5 -4 -10 -10 -10 -5 0 -10 5 -10 10 0 6 5 10 10 10 6 0 10 -4
10 -10z m-6830 -6 c0 -4 -20 -28 -44 -54 -124 -133 -163 -349 -89 -495 39 -77
48 -115 29 -115 -41 0 -126 120 -126 178 0 13 -4 20 -10 17 -15 -9 -12 68 5
150 8 39 31 102 50 142 41 83 130 183 163 183 12 0 22 -3 22 -6z m-30 -175 c0
-5 -7 -9 -15 -9 -15 0 -20 12 -9 23 8 8 24 -1 24 -14z m150 -71 c0 -25 -19
-42 -60 -54 -34 -10 -42 -10 -47 1 -7 19 5 35 20 29 7 -2 22 4 32 16 20 22 55
27 55 8z m6853 -42 c6 -16 -19 -30 -28 -16 -7 11 2 30 15 30 4 0 10 -6 13 -14z
m-4071 -68 c-6 -6 -12 -6 -16 1 -4 6 -2 11 3 11 6 0 12 8 12 18 1 15 2 15 6
-2 3 -10 0 -23 -5 -28z m-3772 -22 c0 -16 -42 -15 -47 1 -2 6 4 13 14 15 23 6
33 0 33 -16z m952 0 c15 -34 4 -58 -24 -54 -27 4 -36 40 -16 62 18 21 27 20
40 -8z m2108 4 c0 -5 -2 -10 -4 -10 -3 0 -8 5 -11 10 -3 6 -1 10 4 10 6 0 11
-4 11 -10z m-80 -28 c0 -5 -7 -9 -15 -9 -8 0 -12 4 -9 9 3 4 9 8 15 8 5 0 9
-4 9 -8z m1180 -119 c0 -5 -4 -15 -10 -23 -11 -18 -25 -7 -17 15 6 15 27 21
27 8z m1563 -64 c7 -12 4 -24 -14 -48 -12 -17 -28 -30 -33 -28 -15 5 -30 71
-17 75 6 2 8 8 5 14 -4 6 5 8 21 6 16 -2 32 -10 38 -19z m-1263 -3 c0 -3 -4
-8 -10 -11 -5 -3 -10 -1 -10 4 0 6 5 11 10 11 6 0 10 -2 10 -4z m-3502 -17
c-2 -6 -8 -10 -13 -10 -5 0 -11 4 -13 10 -2 6 4 11 13 11 9 0 15 -5 13 -11z
m3842 -5 c0 -8 -4 -12 -10 -9 -5 3 -10 10 -10 16 0 5 5 9 10 9 6 0 10 -7 10
-16z m-4042 -113 c3 -8 -1 -12 -9 -9 -7 2 -15 10 -17 17 -3 8 1 12 9 9 7 -2
15 -10 17 -17z m2219 -43 c-3 -7 -5 -2 -5 12 0 14 2 19 5 13 2 -7 2 -19 0 -25z
m11684 -39 c9 -17 8 -25 -4 -36 -19 -19 -37 -9 -37 21 0 40 23 49 41 15z m116
-4 c9 -25 -4 -29 -17 -6 -7 15 -7 21 0 21 6 0 13 -7 17 -15z m-11994 -132 c4
9 6 9 6 0 2 -21 -20 -26 -37 -8 -16 16 -16 17 5 6 16 -8 23 -8 26 2z m3082
-63 c3 -5 4 -14 0 -20 -8 -13 -35 -1 -35 16 0 16 26 19 35 4z m735 -8 c0 -14
-11 -21 -26 -15 -8 3 -11 9 -8 14 7 11 34 12 34 1z m-900 -262 c0 -5 -7 -10
-16 -10 -8 0 -12 5 -9 10 3 6 10 10 16 10 5 0 9 -4 9 -10z m310 -20 c0 -19
-20 -27 -33 -13 -8 7 11 33 24 33 5 0 9 -9 9 -20z m-664 -17 c-10 -10 -19 5
-10 18 6 11 8 11 12 0 2 -7 1 -15 -2 -18z m839 -114 c-22 -4 -53 -7 -70 -7
-26 1 -24 2 10 8 22 4 54 7 70 7 25 1 23 -1 -10 -8z m102 -5 c-3 -3 -12 -4
-19 -1 -8 3 -5 6 6 6 11 1 17 -2 13 -5z m-4098 -91 c10 -20 9 -23 -9 -23 -19
0 -28 28 -13 43 7 8 7 9 22 -20z m-4 -43 c3 -5 2 -10 -4 -10 -5 0 -13 5 -16
10 -3 6 -2 10 4 10 5 0 13 -4 16 -10z m10001 -392 c-3 -13 -6 -33 -6 -45 0
-31 -26 -29 -34 2 -7 28 12 65 33 65 9 0 11 -7 7 -22z m-8976 -67 c0 -25 -16
-51 -31 -51 -13 0 -20 50 -9 70 14 26 40 14 40 -19z m2290 -515 c0 -2 -7 -6
-15 -10 -8 -3 -15 -1 -15 4 0 6 7 10 15 10 8 0 15 -2 15 -4z m1100 -70 c0 -17
-24 -28 -45 -20 -29 12 -14 34 22 34 13 0 23 -6 23 -14z m154 -24 c10 -17 -14
-35 -58 -42 -61 -9 -66 0 -14 26 48 24 64 28 72 16z m-614 -88 c0 -16 -64 -28
-69 -13 -2 8 -6 7 -12 -2 -6 -10 -9 -4 -9 18 0 45 25 57 62 30 15 -11 28 -26
28 -33z m194 -34 c-14 -56 -21 -70 -34 -70 -21 0 -20 41 2 80 33 57 48 53 32
-10z m4642 -308 c-22 -23 -29 -10 -9 18 11 16 18 19 21 11 2 -7 -3 -20 -12
-29z m-566 -51 c0 -12 -21 -19 -37 -13 -22 8 -14 22 12 22 14 0 25 -4 25 -9z
m-4209 -112 c-2 -8 -3 -22 -3 -31 1 -25 -33 -41 -58 -28 -31 17 -25 43 15 67
25 15 51 11 46 -8z m-351 -193 c10 -13 10 -16 -4 -16 -9 0 -16 5 -16 11 0 7
-8 18 -17 26 -17 13 -16 13 3 4 11 -5 26 -17 34 -25z m-2129 -49 c-13 -13 -26
-3 -16 12 3 6 11 8 17 5 6 -4 6 -10 -1 -17z m9424 3 c3 -5 1 -10 -4 -10 -6 0
-11 5 -11 10 0 6 2 10 4 10 3 0 8 -4 11 -10z m-7600 -19 c-3 -6 -11 -8 -17 -5
-6 4 -5 9 3 15 16 10 23 4 14 -10z m485 7 c0 -4 -9 -8 -19 -8 -11 0 -23 -4
-26 -10 -3 -5 -13 -10 -22 -10 -11 0 -9 5 8 19 24 19 59 24 59 9z m-485 -159
c-40 -16 -65 -10 -65 14 0 18 2 19 10 7 8 -13 10 -12 10 3 0 17 2 17 32 1 30
-16 31 -18 13 -25z m705 -141 c0 -5 -4 -8 -10 -8 -5 0 -10 5 -10 11 0 5 -4 7
-10 4 -5 -3 -10 -3 -10 2 0 4 -3 19 -6 33 -6 24 -6 24 20 -5 14 -16 25 -33 26
-37z m-2540 -23 c10 -12 10 -15 -4 -15 -9 0 -16 7 -16 15 0 8 2 15 4 15 2 0 9
-7 16 -15z m3620 -142 c0 -46 -14 -48 -34 -6 -17 35 -17 38 0 50 22 16 34 2
34 -44z m-596 -38 c21 -32 21 -59 0 -51 -9 3 -22 6 -29 6 -19 0 -37 34 -29 54
9 24 40 19 58 -9z m3876 -20 c0 -8 -4 -15 -10 -15 -5 0 -10 7 -10 15 0 8 5 15
10 15 6 0 10 -7 10 -15z m-6956 -101 c23 -9 20 -24 -4 -24 -11 0 -20 7 -20 15
0 17 2 18 24 9z m3572 -53 c16 -10 12 -11 -26 -5 -25 3 -49 10 -55 16 -14 13
56 4 81 -11z m224 -120 c3 -4 18 -11 34 -15 69 -17 115 -108 61 -122 -14 -3
-25 -10 -25 -15 0 -8 -30 -15 -90 -21 -14 -2 -28 -7 -32 -13 -5 -6 -8 -5 -8 3
0 8 -21 12 -72 12 -45 0 -83 6 -98 15 -14 8 -31 17 -39 21 -27 14 -51 44 -51
64 0 23 29 60 47 60 7 0 13 4 13 9 0 6 15 12 33 14 46 7 220 -2 227 -12z m150
-71 c0 -5 -2 -10 -4 -10 -3 0 -8 5 -11 10 -3 6 -1 10 4 10 6 0 11 -4 11 -10z
m-776 -142 c4 -23 11 -45 16 -48 5 -3 13 -52 16 -108 4 -56 11 -102 16 -102 4
0 8 -45 8 -100 0 -55 -4 -100 -9 -100 -4 0 -11 -60 -15 -132 -4 -73 -11 -135
-15 -138 -5 -3 -12 -44 -16 -92 -4 -49 -11 -88 -15 -88 -5 0 -11 -34 -15 -75
-4 -41 -11 -75 -15 -75 -5 0 -12 -29 -15 -65 -4 -36 -11 -65 -15 -65 -4 0 -11
-34 -15 -75 -4 -41 -10 -75 -15 -75 -4 0 -11 -31 -14 -70 -4 -38 -11 -70 -16
-70 -4 0 -11 -34 -15 -75 -4 -41 -11 -75 -15 -75 -4 0 -11 -33 -15 -72 -4 -40
-11 -75 -15 -78 -4 -3 -11 -36 -15 -75 -4 -38 -11 -75 -16 -81 -5 -6 -12 -43
-15 -82 -4 -40 -10 -72 -15 -72 -4 0 -10 -38 -14 -85 -4 -47 -11 -85 -15 -85
-5 0 -11 -34 -15 -75 -4 -41 -11 -75 -15 -75 -4 0 -11 -36 -14 -80 -4 -44 -11
-80 -15 -80 -5 0 -12 -31 -15 -70 -4 -38 -11 -70 -15 -70 -5 0 -12 -29 -16
-65 -3 -36 -10 -65 -14 -65 -5 0 -11 -25 -14 -57 -3 -31 -10 -59 -15 -62 -6
-3 -13 -32 -17 -63 -4 -32 -11 -56 -15 -53 -4 3 -10 -18 -14 -45 -4 -28 -11
-50 -16 -50 -5 0 -13 -18 -16 -40 -4 -22 -10 -40 -14 -40 -5 0 -11 -13 -15
-30 -4 -16 -10 -30 -15 -30 -5 0 -11 -13 -15 -29 -3 -16 -13 -32 -21 -35 -8
-3 -14 -11 -14 -17 0 -17 -116 -126 -142 -135 -13 -4 -26 -11 -29 -16 -3 -5
-23 -11 -45 -15 -21 -3 -42 -10 -45 -16 -9 -13 -239 -13 -247 0 -4 5 -25 13
-47 16 -22 4 -41 11 -43 17 -2 5 -10 10 -18 10 -8 0 -22 9 -31 20 -10 11 -23
20 -30 20 -7 0 -13 7 -13 15 0 8 -4 15 -10 15 -5 0 -12 11 -16 24 -3 14 -12
27 -20 30 -8 3 -14 17 -14 31 0 14 -4 25 -10 25 -5 0 -12 16 -16 35 -3 19 -10
35 -14 35 -4 0 -11 27 -15 60 -4 33 -11 60 -15 60 -5 0 -12 32 -16 70 -3 39
-10 70 -15 70 -4 0 -11 36 -15 80 -3 44 -10 80 -14 80 -7 0 -25 199 -20 216 1
4 -3 10 -9 13 -5 4 -13 59 -17 124 -4 64 -10 117 -14 117 -5 0 -11 75 -15 168
-4 92 -11 169 -15 172 -5 3 -12 123 -16 268 -4 144 -10 262 -15 262 -4 0 -10
8 -12 18 -3 9 -5 2 -6 -15 0 -18 -5 -33 -11 -33 -5 0 -13 -18 -16 -40 -4 -22
-10 -40 -15 -40 -4 0 -11 -20 -15 -45 -3 -25 -10 -45 -14 -45 -4 0 -11 -16
-14 -35 -4 -19 -11 -35 -15 -35 -5 0 -11 -18 -15 -40 -3 -22 -10 -40 -15 -40
-5 0 -12 -16 -15 -35 -4 -19 -11 -35 -16 -35 -6 0 -10 -7 -10 -15 0 -8 -9 -23
-20 -32 -11 -10 -20 -21 -20 -26 0 -12 -27 -37 -40 -37 -6 0 -13 -7 -16 -15
-3 -8 -22 -17 -42 -21 -21 -4 -40 -12 -44 -18 -10 -15 -257 -14 -266 1 -4 6
-22 14 -39 18 -18 3 -33 11 -33 16 0 5 -11 11 -25 15 -15 4 -28 16 -31 29 -3
13 -12 26 -20 29 -8 3 -14 12 -14 21 0 8 -4 15 -9 15 -5 0 -12 20 -15 45 -4
25 -11 45 -16 45 -4 0 -11 38 -15 85 -4 47 -11 85 -15 85 -5 0 -12 50 -15 110
-4 61 -11 110 -15 110 -5 0 -11 72 -15 160 -4 88 -11 160 -15 160 -4 0 -11 83
-15 185 -4 102 -11 185 -16 185 -5 0 -9 14 -9 30 0 17 5 30 10 30 6 0 10 7 10
15 0 8 7 15 15 15 8 0 15 4 15 9 0 5 14 12 30 16 17 4 30 11 30 16 0 5 54 9
120 9 73 0 120 -4 120 -10 0 -5 7 -10 16 -10 9 0 32 -9 50 -21 l34 -21 0 -84
c0 -46 4 -84 9 -84 5 0 12 -81 16 -180 4 -99 11 -180 16 -180 5 0 9 -26 9 -57
0 -79 11 -163 21 -163 5 0 11 23 15 50 4 28 10 50 14 50 4 0 11 20 14 45 4 25
11 45 15 45 5 0 12 20 15 45 4 25 11 45 15 45 5 0 12 20 15 45 4 25 11 45 15
45 5 0 12 20 15 45 4 25 11 45 15 45 5 0 12 20 15 45 4 25 11 45 15 45 5 0 12
20 15 45 4 25 11 45 16 45 6 0 13 18 16 40 4 22 10 40 14 40 5 0 11 14 15 30
4 17 10 30 15 30 4 0 11 12 14 26 7 28 51 74 72 74 7 0 14 5 16 11 2 5 22 13
46 16 23 3 42 10 42 14 0 5 36 9 80 9 44 0 80 -4 80 -9 0 -4 19 -11 41 -14 23
-3 45 -10 48 -15 3 -5 16 -12 28 -16 13 -4 26 -18 29 -32 3 -13 10 -24 15 -24
4 0 11 -16 15 -35 3 -19 10 -35 14 -35 5 0 12 -40 16 -90 3 -49 10 -90 14 -90
4 0 11 -66 15 -147 4 -82 11 -150 16 -153 4 -3 11 -111 15 -240 4 -129 10
-237 14 -240 4 -3 11 -104 15 -225 4 -121 10 -222 14 -225 5 -3 11 -75 15
-160 4 -85 11 -157 16 -160 4 -3 11 -58 15 -122 4 -65 11 -118 15 -118 4 0 11
-47 15 -105 4 -58 11 -105 15 -105 5 0 11 -34 15 -75 4 -41 11 -75 15 -75 4 0
11 -29 15 -65 3 -36 10 -65 15 -65 5 0 11 -8 13 -17 4 -14 5 -12 6 5 0 12 5
22 11 22 5 0 13 18 16 40 4 22 10 40 15 40 5 0 11 23 15 50 4 28 10 50 14 50
5 0 11 27 15 60 4 33 11 60 15 60 4 0 11 27 15 60 4 33 10 60 15 60 4 0 11 34
15 75 4 41 10 75 15 75 4 0 11 34 15 75 4 41 10 75 15 75 4 0 11 38 15 85 4
47 11 85 15 85 5 0 12 36 16 80 3 44 10 80 14 80 4 0 11 34 15 75 4 41 10 75
15 75 4 0 11 34 15 75 4 41 10 75 15 75 4 0 11 34 15 75 4 41 10 75 15 75 4 0
11 34 15 75 4 41 11 75 15 75 5 0 12 32 16 70 3 39 10 70 14 70 4 0 11 29 15
65 3 36 10 65 15 65 4 0 11 34 15 75 4 41 11 75 15 75 5 0 12 32 16 70 3 39
10 70 14 70 5 0 11 27 15 60 4 33 11 60 15 60 4 0 11 27 15 60 4 33 11 60 15
60 5 0 12 20 16 45 3 25 10 45 15 45 4 0 11 23 15 50 4 28 10 50 15 50 5 0 12
18 15 40 4 22 10 40 14 40 4 0 11 16 14 35 4 19 11 35 15 35 5 0 11 18 15 40
3 22 11 40 16 40 6 0 10 7 10 15 0 9 6 18 14 21 8 3 18 19 21 35 4 16 10 29
15 29 4 0 11 11 14 25 4 14 11 25 16 25 6 0 10 7 10 15 0 9 6 18 14 21 8 3 17
16 20 30 4 13 11 24 16 24 6 0 10 5 10 11 0 15 61 78 76 78 6 1 14 -18 18 -41z
m1474 -371 c2 -11 -3 -17 -16 -17 -26 0 -34 11 -20 27 14 17 32 12 36 -10z
m360 -225 c2 -6 9 -12 16 -12 7 0 25 -11 39 -24 l25 -23 7 -321 c4 -177 12
-319 16 -316 5 3 9 -80 9 -184 0 -188 5 -252 20 -252 5 0 11 14 15 30 4 17 10
30 15 30 5 0 11 13 15 29 3 16 13 32 21 35 8 3 14 12 14 21 0 8 4 15 10 15 5
0 12 11 16 25 3 14 10 25 15 25 5 0 13 8 16 18 4 9 17 27 30 39 13 12 23 26
23 32 0 5 14 23 30 39 17 17 30 34 30 37 0 10 106 115 115 115 4 0 24 18 45
39 21 21 48 42 59 46 12 3 21 11 21 16 0 5 8 13 18 16 9 4 26 16 38 29 11 12
31 25 42 29 12 3 22 10 22 15 0 5 13 11 29 15 16 3 32 13 35 21 3 8 12 14 21
14 8 0 15 4 15 10 0 5 11 12 25 16 14 3 25 10 25 14 0 5 14 11 30 15 17 4 30
11 30 16 0 5 7 9 15 9 9 0 18 6 21 14 3 8 19 18 35 21 16 4 29 10 29 15 0 5
14 11 30 15 17 4 30 10 30 15 0 5 14 11 30 15 17 4 30 10 30 15 0 5 14 11 30
15 17 4 30 10 30 15 0 5 14 11 30 15 17 4 30 11 30 16 0 5 18 12 40 15 22 4
40 10 40 14 0 5 14 11 30 15 17 4 30 10 30 15 0 5 20 12 45 16 25 3 45 10 45
15 0 4 21 11 48 15 26 4 49 11 52 15 8 12 198 23 253 15 46 -7 47 -8 47 -43 0
-28 -8 -44 -35 -69 -18 -19 -39 -34 -45 -34 -6 0 -13 -6 -16 -14 -3 -8 -16
-17 -30 -20 -13 -4 -24 -10 -24 -15 0 -5 -13 -12 -30 -16 -16 -4 -30 -11 -30
-16 0 -5 -6 -9 -12 -9 -7 -1 -31 -9 -53 -20 -22 -11 -46 -19 -52 -20 -7 0 -13
-4 -13 -9 0 -5 -13 -12 -30 -16 -16 -4 -30 -10 -30 -15 0 -5 -13 -11 -30 -15
-16 -4 -30 -11 -30 -16 0 -5 -11 -11 -25 -15 -14 -3 -25 -10 -25 -14 0 -5 -13
-11 -30 -15 -16 -4 -30 -10 -30 -15 0 -5 -13 -11 -30 -15 -16 -4 -30 -10 -30
-15 0 -5 -13 -11 -29 -15 -16 -3 -32 -13 -35 -21 -3 -8 -12 -14 -21 -14 -8 0
-15 -4 -15 -9 0 -5 -11 -12 -25 -15 -14 -4 -25 -11 -25 -16 0 -6 -7 -10 -15
-10 -9 0 -18 -6 -21 -14 -3 -8 -16 -17 -30 -20 -13 -4 -24 -11 -24 -16 0 -6
-6 -10 -13 -10 -7 0 -24 -13 -37 -30 -14 -16 -30 -29 -37 -30 -14 0 -223 -208
-223 -221 0 -6 -11 -20 -25 -33 -14 -13 -25 -29 -25 -35 0 -6 -6 -14 -14 -17
-8 -3 -17 -16 -20 -30 -4 -13 -10 -24 -15 -24 -5 0 -12 -13 -16 -30 -4 -16
-11 -30 -16 -30 -5 0 -9 -7 -9 -15 0 -9 -6 -18 -14 -21 -8 -3 -18 -19 -21 -35
-4 -16 -10 -29 -15 -29 -4 0 -10 -18 -14 -40 -3 -22 -10 -40 -15 -40 -5 0 -12
-13 -16 -30 -4 -16 -10 -30 -15 -30 -4 0 -11 -16 -14 -35 -4 -19 -11 -35 -15
-35 -5 0 -11 -18 -15 -40 -3 -22 -10 -40 -15 -40 -5 0 -12 -19 -16 -42 -4 -24
-12 -46 -17 -49 -5 -3 -12 -25 -15 -48 -3 -22 -9 -41 -14 -41 -4 0 -11 -20
-15 -45 -3 -25 -10 -45 -14 -45 -4 0 -10 -22 -14 -50 -4 -27 -11 -50 -15 -50
-5 0 -12 -27 -16 -60 -4 -33 -11 -60 -16 -60 -5 0 -8 -3 -7 -7 4 -19 -15 -163
-22 -163 -5 0 -11 -48 -15 -107 -4 -60 -11 -110 -16 -114 -5 -3 -12 -118 -16
-257 -3 -139 -10 -252 -15 -252 -4 0 -8 -128 -8 -284 0 -245 -2 -287 -16 -300
-8 -9 -21 -16 -29 -16 -7 0 -15 -5 -17 -11 -2 -5 -22 -13 -46 -16 -23 -3 -42
-10 -42 -14 0 -5 -34 -9 -75 -9 -41 0 -75 4 -75 9 0 4 -19 11 -42 14 -24 3
-44 11 -46 16 -2 6 -9 11 -16 11 -6 0 -19 9 -28 20 -16 18 -18 77 -24 620 -4
330 -11 600 -15 600 -4 0 -8 91 -8 203 -1 290 -13 597 -22 597 -5 0 -12 -18
-15 -40 -4 -22 -10 -40 -15 -40 -4 0 -11 -16 -15 -35 -3 -19 -10 -35 -15 -35
-5 0 -12 -18 -15 -40 -4 -22 -10 -40 -15 -40 -4 0 -11 -16 -15 -35 -3 -19 -10
-35 -14 -35 -5 0 -11 -13 -15 -30 -4 -16 -11 -30 -16 -30 -5 0 -12 -18 -15
-40 -4 -22 -10 -40 -14 -40 -5 0 -11 -13 -15 -30 -4 -16 -10 -30 -15 -30 -5 0
-11 -13 -15 -30 -4 -16 -10 -30 -15 -30 -5 0 -11 -13 -15 -30 -4 -16 -11 -30
-16 -30 -5 0 -9 -7 -9 -15 0 -9 -6 -18 -14 -21 -8 -3 -17 -17 -21 -32 -3 -14
-17 -36 -31 -49 -13 -12 -24 -26 -24 -32 0 -14 -90 -101 -105 -101 -7 0 -15
-7 -19 -15 -3 -8 -16 -15 -30 -15 -13 0 -26 -6 -29 -12 -5 -17 -314 -19 -325
-2 -4 6 -19 14 -34 18 -16 3 -28 11 -28 16 0 6 -6 10 -14 10 -8 0 -24 16 -36
35 -12 19 -25 35 -30 35 -5 0 -11 14 -15 30 -4 17 -10 30 -15 30 -5 0 -11 14
-15 30 -4 17 -11 30 -16 30 -5 0 -9 10 -9 23 0 12 -7 35 -15 50 -8 16 -17 50
-21 78 -4 27 -10 49 -14 49 -5 0 -11 27 -15 60 -4 33 -11 60 -15 60 -4 0 -11
42 -15 93 -4 50 -12 95 -17 98 -5 3 -12 112 -15 242 -3 130 -10 234 -15 231
-4 -3 -8 189 -8 426 l0 431 26 24 c15 14 33 25 40 25 7 0 14 6 17 13 3 9 41
12 147 12 106 0 144 -3 148 -12 2 -7 8 -13 14 -13 6 0 21 -10 34 -22 l24 -23
0 -532 c0 -293 4 -533 8 -533 5 0 12 -68 16 -152 4 -84 10 -155 15 -158 5 -3
12 -42 16 -87 4 -46 11 -83 15 -83 4 0 11 -27 15 -59 4 -37 12 -62 21 -65 8
-3 14 1 14 9 0 8 4 15 9 15 5 0 12 14 16 30 4 17 10 30 15 30 5 0 11 14 15 30
4 17 10 30 15 30 4 0 11 16 14 35 4 19 11 35 16 35 4 0 11 14 15 30 4 17 10
30 15 30 4 0 10 18 14 40 3 22 10 40 15 40 5 0 12 16 15 35 4 19 11 35 15 35
5 0 12 20 15 45 4 25 11 45 16 45 6 0 13 18 16 40 4 22 10 40 15 40 4 0 11 20
15 45 3 25 10 45 15 45 4 0 11 20 15 45 3 25 10 45 15 45 4 0 11 20 15 45 3
25 10 45 14 45 4 0 11 16 14 35 4 19 11 35 15 35 5 0 11 18 15 40 3 22 10 40
15 40 5 0 12 14 16 30 4 17 11 30 16 30 5 0 9 7 9 15 0 9 6 18 14 21 8 3 17
16 20 30 4 13 11 24 16 24 6 0 10 5 10 11 0 12 103 119 115 119 3 0 13 6 21
14 15 15 20 96 6 96 -10 0 -25 455 -16 487 4 14 17 24 35 28 16 4 29 10 29 15
0 14 46 18 174 16 85 -1 121 -5 124 -14z m2217 -412 c3 -5 1 -10 -4 -10 -6 0
-11 5 -11 10 0 6 2 10 4 10 3 0 8 -4 11 -10z m-9485 -48 c0 -13 -12 -22 -22
-16 -10 6 -1 24 13 24 5 0 9 -4 9 -8z m12800 -153 c0 -5 4 -7 10 -4 5 3 7 0 4
-9 -3 -8 2 -16 13 -19 14 -4 14 -5 -4 -6 -14 -1 -23 5 -23 14 0 8 -5 14 -11
13 -6 -2 -14 3 -16 10 -3 6 2 12 11 12 9 0 16 -5 16 -11z m-40 -19 c0 -11 6
-19 13 -17 6 1 11 -6 9 -15 -2 -13 2 -16 15 -11 17 7 17 6 1 -10 -16 -17 -19
-17 -43 -1 -26 17 -31 29 -15 39 5 3 7 12 3 20 -3 8 0 15 6 15 6 0 11 -9 11
-20z m-104 -105 c-3 -8 -15 -15 -26 -15 -16 0 -20 7 -20 31 0 17 4 28 10 24 6
-3 10 0 10 7 0 7 7 2 16 -10 9 -13 13 -29 10 -37z m-3530 -107 c4 -7 4 -10 -1
-6 -4 4 -13 0 -20 -9 -6 -8 -18 -14 -25 -11 -10 3 -9 8 4 21 21 20 32 21 42 5z
m-9091 -358 c-3 -5 4 -10 15 -10 17 0 20 -4 15 -17 -37 -86 -49 -136 -53 -235
-6 -148 19 -233 88 -299 l48 -47 -25 -13 c-32 -17 -48 -7 -95 61 -65 92 -82
149 -82 280 -1 96 3 124 22 170 23 59 58 120 67 120 4 0 3 -4 0 -10z m11998
-94 c4 -9 -3 -16 -19 -19 -18 -3 -24 0 -24 14 0 22 35 26 43 5z m-9548 -286
c3 -5 1 -10 -4 -10 -6 0 -11 5 -11 10 0 6 2 10 4 10 3 0 8 -4 11 -10z"/>
<path d="M12594 15799 c-83 -88 -268 -201 -408 -250 l-68 -24 6 -160 c4 -88 9
-205 11 -260 3 -55 14 -334 25 -620 11 -286 22 -566 26 -622 l6 -103 36 0 c28
0 42 -7 68 -37 121 -138 121 -138 138 -124 13 11 22 12 42 2 22 -10 25 -17 22
-43 -4 -24 2 -42 23 -71 42 -57 64 -132 63 -212 0 -69 -20 -138 -94 -325 l-22
-55 41 40 c23 21 53 56 67 76 22 32 24 40 12 58 -11 18 -10 23 10 36 27 20 28
35 2 35 -11 0 -20 4 -20 8 0 17 13 21 32 9 16 -9 22 -9 25 0 3 9 12 9 30 2 14
-5 28 -8 30 -5 2 2 7 30 11 63 l7 59 900 -258 c495 -141 900 -257 901 -258 0
0 20 30 44 67 55 82 181 213 243 253 26 16 47 34 47 40 0 6 -23 39 -50 73 -28
34 -70 86 -93 115 -41 51 -80 98 -178 213 -117 136 -361 436 -366 449 -4 8
-22 30 -40 49 -19 18 -51 54 -71 80 -20 25 -102 125 -182 221 -80 96 -156 189
-170 206 -14 18 -47 59 -74 93 -28 34 -55 60 -62 57 -7 -3 -11 0 -8 7 3 8
-876 1091 -929 1143 -2 2 -17 -10 -33 -27z m353 -1340 c21 -21 -36 -55 -84
-50 -24 2 -13 27 20 44 39 19 50 20 64 6z m-687 -348 c0 -13 -29 -35 -37 -28
-7 8 15 37 28 37 5 0 9 -4 9 -9z m1700 -69 c0 -5 -7 -17 -15 -28 -15 -19 -20
-8 -9 20 6 17 24 22 24 8z m-325 -142 c3 -5 -1 -10 -10 -10 -9 0 -13 5 -10 10
3 6 8 10 10 10 2 0 7 -4 10 -10z m-247 -133 c5 -24 -15 -21 -21 4 -3 13 -1 19
6 16 7 -2 13 -11 15 -20z m178 -315 c8 -5 1 -20 -20 -47 -26 -35 -35 -40 -56
-34 -14 4 -20 7 -14 8 7 1 15 13 19 28 10 41 45 63 71 45z m-166 -242 c0 -5
-2 -10 -4 -10 -3 0 -8 5 -11 10 -3 6 -1 10 4 10 6 0 11 -4 11 -10z m203 -61
c3 -13 1 -19 -6 -16 -15 5 -22 37 -9 37 5 0 12 -9 15 -21z"/>
<path d="M15480 13246 c0 -13 -12 -16 -55 -16 -56 0 -65 -6 -43 -28 10 -9 8
-16 -6 -30 -16 -16 -18 -16 -31 2 -8 10 -12 22 -10 27 9 13 -14 21 -44 14
l-28 -6 18 -52 c10 -29 25 -104 33 -167 9 -63 25 -140 36 -170 29 -78 87 -152
128 -162 18 -5 32 -15 32 -24 0 -8 20 -23 46 -34 54 -23 60 -24 46 -7 -7 8 -7
18 -1 27 8 13 10 13 19 0 5 -8 10 -10 10 -5 0 11 20 -16 20 -27 0 -5 -7 -8
-16 -8 -37 0 2 -19 72 -35 42 -9 104 -32 139 -49 l62 -33 25 51 c14 29 31 79
38 111 19 94 1 240 -35 285 -7 8 -15 27 -18 41 -4 14 -25 51 -48 82 -39 53
-43 55 -76 50 -35 -6 -35 -6 -29 24 6 26 3 34 -21 51 -47 33 -113 63 -172 78
-31 8 -64 17 -73 20 -12 4 -18 0 -18 -10z"/>
<path d="M12691 13117 c-61 -160 -158 -267 -315 -348 -45 -23 -82 -42 -83 -43
-1 -1 -18 -132 -37 -291 -20 -160 -45 -369 -57 -465 -12 -96 -23 -193 -25
-215 -1 -22 -12 -112 -24 -200 -20 -155 -29 -229 -70 -570 -19 -156 -63 -520
-80 -660 -5 -38 -12 -95 -16 -126 l-6 -57 43 -7 c100 -17 141 -41 236 -138 49
-50 111 -126 138 -167 26 -41 58 -87 71 -102 34 -41 84 -153 91 -204 5 -38 9
-45 24 -41 24 7 25 -19 2 -32 -16 -9 -18 -26 -16 -162 0 -101 5 -155 12 -157
13 -4 15 -32 2 -32 -4 0 -11 -41 -14 -91 -4 -49 -12 -99 -18 -110 -5 -11 -9
-28 -7 -37 3 -12 11 -5 31 25 43 67 86 186 102 281 26 156 4 374 -43 412 -10
9 -17 21 -15 27 6 16 -41 104 -69 130 -17 16 -28 19 -38 13 -25 -16 -32 -11
-26 15 5 21 1 29 -24 43 -36 20 -37 26 -7 39 21 10 20 12 -27 42 -28 17 -56
31 -64 31 -25 0 -6 25 21 28 21 3 27 -1 27 -16 0 -14 9 -21 31 -26 29 -5 39 0
108 66 42 39 81 85 88 102 8 22 17 30 31 29 14 -2 58 32 134 101 62 56 343
311 623 566 1100 998 1236 1123 1233 1130 -2 4 -27 27 -56 50 -69 54 -134 144
-162 222 -34 96 -38 247 -11 362 12 49 18 93 14 97 -9 8 -66 25 -228 70 -66
18 -131 40 -144 48 -14 9 -34 14 -45 13 -19 -3 -85 15 -316 84 -146 44 -210
62 -365 105 -82 22 -160 47 -172 55 -12 8 -34 14 -48 14 -31 0 -276 69 -289
81 -6 5 -20 9 -32 9 -12 0 -40 7 -63 15 -40 14 -42 14 -50 -8z m139 -192 c0
-21 -24 -45 -44 -45 -10 0 -7 30 4 51 15 27 40 24 40 -6z m-50 -224 c0 -24
-18 -37 -32 -23 -8 8 -7 16 2 27 17 21 30 19 30 -4z m370 -46 c0 -3 -9 -5 -20
-5 -11 0 -20 7 -20 15 0 13 4 14 20 5 11 -6 20 -13 20 -15z m688 -256 c31 -12
28 -15 -14 -16 -31 -1 -38 3 -49 30 -13 32 -10 56 9 69 7 5 15 -8 21 -34 7
-28 18 -44 33 -49z m145 -258 c4 0 7 -5 7 -11 0 -12 -57 -13 -64 -1 -10 16 9
20 57 12z m-1483 -1511 c0 -5 -7 -10 -15 -10 -8 0 -15 5 -15 10 0 6 7 10 15
10 8 0 15 -4 15 -10z m-263 -25 c8 -22 -6 -33 -17 -15 -13 20 -12 30 0 30 6 0
13 -7 17 -15z m395 -1107 c-7 -7 -12 -8 -12 -2 0 14 12 26 19 19 2 -3 -1 -11
-7 -17z"/>
<path d="M11061 12804 c-228 -130 -426 -237 -439 -238 -14 -2 -28 -10 -33 -19
-5 -8 -41 -34 -80 -56 -58 -34 -74 -39 -86 -29 -11 9 -16 9 -24 -3 -5 -8 -9
-19 -9 -25 0 -11 -179 -117 -245 -146 -16 -7 -32 -15 -35 -19 -3 -3 -30 -18
-62 -32 -31 -15 -58 -31 -60 -36 -3 -8 -360 -213 -386 -222 -9 -3 -2 -19 23
-51 74 -95 94 -275 45 -415 -27 -78 -27 -77 119 -203 61 -52 111 -101 111
-107 0 -7 4 -13 9 -13 14 0 575 -529 583 -550 4 -11 18 -24 30 -29 19 -7 391
-350 619 -568 29 -29 57 -53 61 -53 4 0 31 14 60 31 82 48 149 75 268 109 90
25 128 30 215 30 58 0 105 3 105 8 0 6 36 304 150 1247 22 182 47 386 56 455
9 69 35 283 58 475 l42 350 -135 6 c-142 7 -186 17 -288 66 -80 38 -182 141
-213 215 -14 32 -29 58 -35 58 -5 0 -196 -106 -424 -236z m426 -596 c-3 -8 -6
-5 -6 6 -1 11 2 17 5 13 3 -3 4 -12 1 -19z m203 -38 c0 -5 -5 -12 -11 -16 -14
-8 -33 11 -25 25 7 11 36 4 36 -9z m124 -55 c5 -15 -18 -45 -35 -45 -13 0 -22
27 -15 45 7 19 42 19 50 0z m-464 -85 c0 -5 -4 -10 -9 -10 -6 0 -13 5 -16 10
-3 6 1 10 9 10 9 0 16 -4 16 -10z m130 -84 c0 -3 -4 -8 -10 -11 -5 -3 -10 -1
-10 4 0 6 5 11 10 11 6 0 10 -2 10 -4z m-1344 -335 c-26 -50 -56 -68 -56 -33
0 17 69 96 77 88 2 -2 -7 -27 -21 -55z m1169 -146 c0 -10 -6 -20 -12 -22 -8
-3 -13 5 -13 22 0 17 5 25 13 23 6 -3 12 -13 12 -23z m25 -205 c0 -5 -4 -10
-10 -10 -5 0 -10 5 -10 10 0 6 5 10 10 10 6 0 10 -4 10 -10z m-1067 -207 c6
-35 -15 -47 -58 -33 -40 13 -45 32 -12 48 36 17 65 11 70 -15z m1247 -300 c11
-4 8 -8 -10 -13 -24 -6 -64 4 -85 22 -10 9 67 1 95 -9z"/>
<path d="M11334 12995 c-17 -13 -17 -14 -2 -15 9 0 20 5 23 11 11 17 0 20 -21
4z"/>
<path d="M10915 12759 c-12 -19 5 -23 22 -6 16 16 16 17 1 17 -9 0 -20 -5 -23
-11z"/>
<path d="M17419 11948 c77 -40 166 -113 205 -168 9 -14 7 -5 -6 19 -28 53 -95
121 -140 143 -124 61 -175 66 -59 6z"/>
<path d="M11165 9720 c-3 -5 -1 -10 4 -10 6 0 11 5 11 10 0 6 -2 10 -4 10 -3
0 -8 -4 -11 -10z"/>
<path d="M12440 9575 c0 -9 6 -12 15 -9 8 4 15 10 15 15 0 5 -7 9 -15 9 -8 0
-15 -7 -15 -15z"/>
<path d="M11000 9139 c0 -5 5 -7 10 -4 6 3 10 8 10 11 0 2 -4 4 -10 4 -5 0
-10 -5 -10 -11z"/>
<path d="M11500 8710 c0 -5 5 -10 11 -10 5 0 7 5 4 10 -3 6 -8 10 -11 10 -2 0
-4 -4 -4 -10z"/>
<path d="M6484 6545 c-11 -12 -30 -26 -42 -29 -12 -4 -22 -11 -22 -16 0 -5
-13 -11 -30 -15 -16 -4 -30 -10 -30 -15 0 -4 -16 -11 -35 -14 -19 -4 -35 -11
-35 -15 0 -5 -18 -11 -40 -15 -22 -3 -40 -10 -40 -16 0 -5 -16 -12 -35 -16
-19 -3 -35 -10 -35 -14 0 -5 -13 -11 -30 -15 -16 -4 -30 -12 -30 -18 0 -7 -4
-6 -10 3 -6 9 -10 10 -10 3 0 -6 -13 -14 -30 -18 -16 -4 -30 -11 -30 -16 0 -5
-7 -9 -15 -9 -9 0 -18 -6 -21 -14 -3 -8 -19 -18 -35 -21 -16 -4 -29 -10 -29
-15 0 -5 -10 -12 -22 -15 -11 -4 -31 -18 -43 -31 -12 -13 -26 -24 -30 -24 -10
0 -135 -127 -135 -137 0 -5 -9 -16 -20 -26 -11 -9 -20 -23 -20 -31 0 -8 -7
-16 -15 -20 -8 -3 -15 -12 -15 -21 0 -8 -4 -15 -9 -15 -5 0 -12 -13 -16 -30
-4 -16 -11 -30 -16 -30 -5 0 -8 -3 -7 -7 4 -15 -14 -73 -22 -73 -4 0 -11 -26
-15 -57 -4 -32 -12 -61 -17 -64 -15 -9 -16 -318 -2 -327 6 -4 14 -28 18 -54 4
-27 11 -48 15 -48 5 0 11 -18 15 -40 3 -22 10 -40 15 -40 5 0 12 -13 16 -30 4
-17 11 -30 16 -30 5 0 9 -7 9 -15 0 -9 7 -18 15 -21 8 -3 17 -15 20 -25 7 -22
142 -159 157 -159 5 0 19 -11 32 -25 13 -14 29 -25 35 -25 6 0 14 -6 17 -14 3
-8 19 -18 35 -21 16 -4 29 -10 29 -15 0 -5 14 -11 30 -15 17 -4 30 -11 30 -16
0 -5 18 -12 40 -15 22 -4 40 -10 40 -15 0 -4 21 -11 48 -15 26 -4 50 -12 54
-18 10 -15 316 -15 326 0 4 6 24 14 45 18 20 4 37 11 37 16 0 4 14 11 30 15
17 4 30 11 30 16 0 5 6 9 13 9 7 0 24 13 38 29 14 15 35 31 46 35 12 4 25 16
28 27 4 12 24 37 44 57 21 21 40 45 44 55 3 9 11 17 16 17 5 0 12 14 16 30 4
17 10 30 15 30 5 0 11 14 15 30 4 17 10 30 15 30 4 0 10 19 14 42 4 23 12 46
19 50 17 10 17 426 1 436 -7 4 -15 33 -19 65 -4 31 -11 57 -16 57 -4 0 -11 20
-15 45 -3 25 -10 45 -15 45 -4 0 -11 16 -15 35 -3 19 -10 35 -14 35 -5 0 -11
14 -15 30 -4 17 -10 30 -15 30 -5 0 -11 14 -15 30 -4 17 -11 30 -16 30 -5 0
-9 9 -9 19 0 11 -7 26 -15 34 -7 8 -17 26 -21 41 -3 14 -10 26 -14 26 -5 0
-11 14 -15 30 -4 17 -10 30 -15 30 -4 0 -11 11 -14 25 -4 14 -10 25 -15 25 -5
0 -12 13 -16 29 -3 16 -13 32 -21 35 -8 3 -14 12 -14 21 0 8 -4 15 -9 15 -5 0
-12 11 -15 25 -4 14 -11 25 -16 25 -6 0 -10 6 -10 13 0 7 -9 20 -20 30 -11 9
-20 23 -20 31 0 8 -7 16 -15 20 -8 3 -15 10 -15 16 0 6 -6 17 -13 24 -11 11
-17 10 -33 -9z"/>
<path d="M17673 12725 c0 -8 4 -12 9 -9 5 3 6 10 3 15 -9 13 -12 11 -12 -6z"/>
</g>
</svg>
